# xmcd CD database file
#
# Track frame offsets:
#	150
#	31249
#	48257
#	62562
#	84043
#	117437
#	141591
#	158022
#	183126
#	209042
#	229194
#	241326
#	268283
#	291886
#	320803
#	347746
#
# Disc length: 4793 seconds
#
# Revision: 1
# Processed by: cddbd v1.5.2PL0 Copyright (c) Steve Scherf et al.
# Submitted via: CDex 2.09
#
DISCID=ee12b710
DTITLE=Musica Jazz (Magazine) - The Gerald Wilson Big Band - Milestone
DYEAR=2018
DGENRE=Jazz
TTITLE0=Blues for Yna Yna
TTITLE1=Jeri
TTITLE2=Moody Blue
TTITLE3=Straight up and down
TTITLE4=The Wailer
TTITLE5=You better believe it
TTITLE6=Yvette
TTITLE7=Milestones
TTITLE8=Viva Tirado
TTITLE9=Moment of Truth
TTITLE10=Nancy Jo
TTITLE11=So What
TTITLE12='Round Midnight
TTITLE13=Paco
TTITLE14=Ravi
TTITLE15=Please send me someone to love
EXTD=YEAR: 2018
EXTT0=
EXTT1=
EXTT2=
EXTT3=
EXTT4=
EXTT5=
EXTT6=
EXTT7=
EXTT8=
EXTT9=
EXTT10=
EXTT11=
EXTT12=
EXTT13=
EXTT14=
EXTT15=
PLAYORDER=
